<svg width="22" height="23" viewBox="0 0 22 23" fill="none" xmlns="http://www.w3.org/2000/svg">
<path d="M3.54286 18.1312V16.0848C2.64372 15.9433 1.81614 15.5098 1.18791 14.8511C0.559684 14.1925 0.165736 13.3454 0.0668907 12.4406C-0.158473 10.3861 0.188151 8.30928 1.06851 6.43935C1.94887 4.56942 3.32873 2.97906 5.05582 1.84379C6.78291 0.708514 8.79008 0.0724644 10.8558 0.00583243C12.9215 -0.0607996 14.9655 0.444577 16.7622 1.46619C9.61898 3.20201 8.44834 7.20433 8.32178 12.1083C8.30736 12.7511 8.1413 13.3813 7.83713 13.9477C7.56708 14.4496 7.19662 14.8906 6.7488 15.2432C6.30098 15.5957 5.78539 15.8523 5.23411 15.9971C5.09988 16.0325 4.96566 16.0608 4.83143 16.0819V18.1312H3.54286Z" fill="url(#paint0_linear_7104_39851)"/>
<path d="M5.23413 20.5969C12.3773 18.8611 13.548 14.8602 13.6745 9.95471C13.6986 9.06062 14.0125 8.19855 14.569 7.49837C15.1267 6.79797 15.8961 6.29696 16.7622 6.07029C16.8964 6.03482 17.0306 6.00654 17.1649 5.98544V3.93034H18.4592V5.97825C19.3582 6.11979 20.1855 6.55337 20.8135 7.21203C21.4415 7.87069 21.8352 8.71779 21.9337 9.6225C22.1381 11.4959 21.868 13.3905 21.1483 15.1321C20.4285 16.8737 19.2822 18.4063 17.8149 19.5888C15.8164 21.1925 13.3305 22.0661 10.7681 22.0653C8.82713 22.0653 6.91973 21.5592 5.23413 20.5969Z" fill="url(#paint1_linear_7104_39851)"/>
<defs>
<linearGradient id="paint0_linear_7104_39851" x1="16.7622" y1="0" x2="-1.31331" y2="16.7107" gradientUnits="userSpaceOnUse">
<stop stop-color="#BC043D"/>
<stop offset="1" stop-color="#FF5A04"/>
</linearGradient>
<linearGradient id="paint1_linear_7104_39851" x1="22" y1="3.93034" x2="3.9208" y2="20.6447" gradientUnits="userSpaceOnUse">
<stop stop-color="#BC043D"/>
<stop offset="1" stop-color="#FF5A04"/>
</linearGradient>
</defs>
</svg>
