<svg width="112" height="96" viewBox="0 0 112 96" fill="none" xmlns="http://www.w3.org/2000/svg">
<path d="M3.88379 95.8001H32.3649H78.9703C79.1516 95.8001 79.3328 95.7742 79.514 95.7483H107.451C109.6 95.7483 111.335 94.0135 111.335 91.8645V45.2591C111.335 43.11 109.6 41.3753 107.451 41.3753H99.6838H97.0947H91.9163H89.3271H82.8541V3.88379C82.8541 1.73476 81.1193 0 78.9703 0H32.3649C30.2159 0 28.4811 1.73476 28.4811 3.88379V41.4271H24.5973H22.0081H16.8297H14.2405H3.88379C1.73476 41.4271 0 43.1618 0 45.3108V91.9163C0 94.0653 1.73476 95.8001 3.88379 95.8001ZM82.8541 49.1428H89.3271H91.9163H97.0947H99.6838H103.568V87.9807H82.8541V49.1428ZM36.2487 7.76757H75.0865V45.2591V88.0325H36.2487V7.76757ZM7.76757 49.1946H14.2405H16.8297H22.0081H24.5973H28.4811V88.0325H7.76757V49.1946Z" fill="url(#paint0_linear_11165_184974)"/>
<path d="M22.0068 56.9629H14.2393C12.0902 56.9629 10.3555 58.6976 10.3555 60.8467C10.3555 62.9957 12.0902 64.7305 14.2393 64.7305H22.0068C24.1559 64.7305 25.8906 62.9957 25.8906 60.8467C25.8906 58.6976 24.1559 56.9629 22.0068 56.9629Z" fill="url(#paint1_linear_11165_184974)"/>
<path d="M97.0937 56.9102H89.3262C87.1771 56.9102 85.4424 58.6449 85.4424 60.7939C85.4424 62.943 87.1771 64.6777 89.3262 64.6777H97.0937C99.2428 64.6777 100.978 62.943 100.978 60.7939C100.978 58.6449 99.2428 56.9102 97.0937 56.9102Z" fill="url(#paint2_linear_11165_184974)"/>
<path d="M60.8457 46.6055H53.0781C50.9291 46.6055 49.1943 48.3402 49.1943 50.4893C49.1943 52.6383 50.9291 54.373 53.0781 54.373H60.8457C62.9947 54.373 64.7295 52.6383 64.7295 50.4893C64.7295 48.3402 62.9947 46.6055 60.8457 46.6055Z" fill="url(#paint3_linear_11165_184974)"/>
<path d="M60.8457 15.5352H53.0781C50.9291 15.5352 49.1943 17.2699 49.1943 19.4189C49.1943 21.568 50.9291 23.3027 53.0781 23.3027H60.8457C62.9947 23.3027 64.7295 21.568 64.7295 19.4189C64.7295 17.2699 62.9947 15.5352 60.8457 15.5352Z" fill="url(#paint4_linear_11165_184974)"/>
<path d="M60.8457 31.0703H53.0781C50.9291 31.0703 49.1943 32.8051 49.1943 34.9541C49.1943 37.1031 50.9291 38.8379 53.0781 38.8379H60.8457C62.9947 38.8379 64.7295 37.1031 64.7295 34.9541C64.7295 32.8051 62.9947 31.0703 60.8457 31.0703Z" fill="url(#paint5_linear_11165_184974)"/>
<defs>
<linearGradient id="paint0_linear_11165_184974" x1="0" y1="47.9" x2="111.335" y2="47.9" gradientUnits="userSpaceOnUse">
<stop stop-color="#BC043D"/>
<stop offset="1" stop-color="#FF5A04"/>
</linearGradient>
<linearGradient id="paint1_linear_11165_184974" x1="10.3555" y1="60.8467" x2="25.8906" y2="60.8467" gradientUnits="userSpaceOnUse">
<stop stop-color="#BC043D"/>
<stop offset="1" stop-color="#FF5A04"/>
</linearGradient>
<linearGradient id="paint2_linear_11165_184974" x1="85.4424" y1="60.7939" x2="100.978" y2="60.7939" gradientUnits="userSpaceOnUse">
<stop stop-color="#BC043D"/>
<stop offset="1" stop-color="#FF5A04"/>
</linearGradient>
<linearGradient id="paint3_linear_11165_184974" x1="49.1943" y1="50.4893" x2="64.7295" y2="50.4893" gradientUnits="userSpaceOnUse">
<stop stop-color="#BC043D"/>
<stop offset="1" stop-color="#FF5A04"/>
</linearGradient>
<linearGradient id="paint4_linear_11165_184974" x1="49.1943" y1="19.4189" x2="64.7295" y2="19.4189" gradientUnits="userSpaceOnUse">
<stop stop-color="#BC043D"/>
<stop offset="1" stop-color="#FF5A04"/>
</linearGradient>
<linearGradient id="paint5_linear_11165_184974" x1="49.1943" y1="34.9541" x2="64.7295" y2="34.9541" gradientUnits="userSpaceOnUse">
<stop stop-color="#BC043D"/>
<stop offset="1" stop-color="#FF5A04"/>
</linearGradient>
</defs>
</svg>
