<svg width="16" height="18" viewBox="0 0 12 14" fill="none" xmlns="http://www.w3.org/2000/svg">
<path d="M3.44797 11.366L3.1999 11.2242L2.95183 11.366L0.899902 12.5385V2.2001C0.899902 1.90836 1.01579 1.62857 1.22208 1.42228C1.42837 1.21599 1.70816 1.1001 1.9999 1.1001H9.9999C10.2916 1.1001 10.5714 1.21599 10.7777 1.42228C10.984 1.62857 11.0999 1.90836 11.0999 2.2001V12.5385L9.04797 11.366L8.7999 11.2242L8.55183 11.366L5.9999 12.8242L3.44797 11.366ZM7.4808 2.88089L7.48075 2.88094L5.60684 4.75485C5.66789 4.57803 5.6999 4.39071 5.6999 4.2001C5.6999 3.74923 5.5208 3.31683 5.20198 2.99802C4.88317 2.6792 4.45077 2.5001 3.9999 2.5001C3.54903 2.5001 3.11663 2.6792 2.79782 2.99802C2.47901 3.31683 2.2999 3.74923 2.2999 4.2001C2.2999 4.65097 2.47901 5.08337 2.79782 5.40218C3.11663 5.72099 3.54903 5.9001 3.9999 5.9001C4.19052 5.9001 4.37783 5.86808 4.55466 5.80704L2.68345 7.67824C2.56092 7.79747 2.46311 7.93971 2.39561 8.09683C2.32748 8.25543 2.29162 8.42602 2.29012 8.59863C2.28862 8.77125 2.32151 8.94243 2.38688 9.10219C2.45224 9.26196 2.54877 9.40711 2.67083 9.52917C2.79289 9.65123 2.93804 9.74776 3.09781 9.81312C3.25757 9.87849 3.42875 9.91138 3.60137 9.90988C3.77398 9.90838 3.94457 9.87252 4.10317 9.80439C4.26029 9.73689 4.40254 9.63907 4.52177 9.51653L6.39296 7.64534C6.33192 7.82217 6.2999 8.00948 6.2999 8.2001C6.2999 8.65096 6.47901 9.08337 6.79782 9.40218C7.11663 9.72099 7.54904 9.9001 7.9999 9.9001C8.45077 9.9001 8.88317 9.72099 9.20198 9.40218C9.5208 9.08337 9.6999 8.65096 9.6999 8.2001C9.6999 7.74923 9.5208 7.31683 9.20198 6.99802C8.88317 6.6792 8.45077 6.5001 7.9999 6.5001C7.80929 6.5001 7.62197 6.53211 7.44515 6.59316L9.31906 4.71925L9.31911 4.7192C9.56282 4.47541 9.69973 4.14481 9.69973 3.8001C9.69973 3.45538 9.56282 3.12478 9.31911 2.881L8.9655 3.2345L9.319 2.88089C9.07522 2.63718 8.74462 2.50027 8.3999 2.50027C8.05519 2.50027 7.72459 2.63718 7.4808 2.88089Z" fill="#6B7280" stroke="#6B7280"/>
</svg>
