<svg width="98" height="97" viewBox="0 0 98 97" fill="none" xmlns="http://www.w3.org/2000/svg">
<path d="M48.6693 0C22.0073 0 0.335938 21.6713 0.335938 48.3333C0.335938 74.9954 22.0073 96.6667 48.6693 96.6667C75.3313 96.6667 97.0026 74.9954 97.0026 48.3333C97.0026 21.6713 75.3313 0 48.6693 0ZM48.6693 89.9225C40.2166 89.9225 32.3483 87.3822 25.784 83.0209C28.3693 72.5675 37.6763 65.1938 48.6693 65.1938C59.6623 65.1938 68.9693 72.5675 71.5546 83.0209C64.9902 87.3822 57.122 89.9225 48.6693 89.9225ZM34.0569 43.8372C34.0569 35.7892 40.6212 29.2248 48.6693 29.2248C56.7173 29.2248 63.2817 35.7892 63.2817 43.8372C63.2817 51.8853 56.7173 58.4496 48.6693 58.4496C40.6212 58.4496 34.0569 51.8853 34.0569 43.8372ZM77.2197 78.4799C74.4321 70.6341 68.5871 64.4295 61.146 61.1023C66.4964 57.2132 70.0034 50.9186 70.0034 43.8147C70.0034 32.0349 60.4266 22.4581 48.6468 22.4581C36.867 22.4581 27.2902 32.0349 27.2902 43.8147C27.2902 50.9186 30.7972 57.2132 36.1476 61.1023C28.729 64.4295 22.884 70.6341 20.0739 78.4799C12.1158 70.9039 7.08012 60.2031 7.08012 48.3333C7.08012 25.4031 25.739 6.74419 48.6693 6.74419C71.5995 6.74419 90.2584 25.4031 90.2584 48.3333C90.2584 60.2031 85.2228 70.9039 77.2197 78.4799Z" fill="url(#paint0_linear_11165_184984)"/>
<defs>
<linearGradient id="paint0_linear_11165_184984" x1="0.335938" y1="48.3333" x2="97.0026" y2="48.3333" gradientUnits="userSpaceOnUse">
<stop stop-color="#BC043D"/>
<stop offset="1" stop-color="#FF5A04"/>
</linearGradient>
</defs>
</svg>
