<svg width="42" height="16" viewBox="0 0 42 16" fill="none" xmlns="http://www.w3.org/2000/svg">
<path fill-rule="evenodd" clip-rule="evenodd" d="M22.0826 5.42266C21.7303 5.12633 21.129 4.97833 20.2783 4.97833H18.3596V10.9077H19.7943V9.04933H20.437C21.217 9.04933 21.789 8.87766 22.153 8.534C22.563 8.149 22.7693 7.63633 22.7693 6.99633C22.7693 6.33266 22.5403 5.808 22.0826 5.42266ZM20.4013 7.70766H19.7943V6.32H20.3396C21.003 6.32 21.3346 6.55266 21.3346 7.018C21.3346 7.47733 21.0233 7.70733 20.4013 7.70733V7.70766ZM25.2243 4.978H23.7283V10.9073H26.9583V9.56533H25.2243V4.978ZM29.8893 4.978L27.5393 10.9073H29.1499L29.458 10.0453H31.4999L31.7816 10.9073H33.4103L31.077 4.978H29.8893ZM29.8716 8.845L30.4879 6.81833L31.0946 8.845H29.8713H29.8716Z" fill="#6B7280"/>
<mask id="mask0_7542_38284" style="mask-type:alpha" maskUnits="userSpaceOnUse" x="0" y="0" width="42" height="16">
<path d="M0 15.8243H42V0H0V15.8243Z" fill="white"/>
</mask>
<g mask="url(#mask0_7542_38284)">
<path fill-rule="evenodd" clip-rule="evenodd" d="M34.1577 10.9073H35.654V4.978H34.1577V10.9073ZM41.4633 6.08933C41.2743 5.81528 41.0317 5.58247 40.75 5.405C40.2983 5.12033 39.682 4.97833 38.9017 4.97833H36.9303V10.9073H39.2363C40.0697 10.9073 40.7383 10.635 41.243 10.0897C41.7477 9.54467 41.9997 8.82133 41.9997 7.92033C41.9997 7.20367 41.8207 6.59333 41.463 6.08933H41.4633ZM39.069 9.565H38.4267V6.32033H39.078C39.5357 6.32033 39.8873 6.46367 40.134 6.74933C40.3807 7.035 40.504 7.44033 40.504 7.965C40.504 9.03167 40.0257 9.565 39.069 9.565ZM6.21233 0L1.36333 1.27L0.027 6.14633L1.69833 7.86233L0 9.55L1.25767 14.4477L6.08567 15.7967L7.78433 14.1087L9.45567 15.8243L14.3047 14.5543L15.6407 9.67767L13.9697 7.96233L15.668 6.27467L14.4103 1.37667L9.58167 0.0276667L7.88367 1.71533L6.21233 0ZM3.23667 2.208L5.791 1.53867L6.908 2.68533L5.279 4.304L3.23667 2.208ZM8.844 2.70067L9.979 1.573L12.5223 2.28367L10.4467 4.346L8.844 2.70067ZM1.55733 5.746L2.261 3.17767L4.30267 5.27367L2.674 6.89233L1.55733 5.74567V5.746ZM11.4063 5.33167L13.482 3.26867L14.144 5.84867L13.0093 6.97667L11.4063 5.33167ZM6.239 5.28933L7.868 3.67067L9.47033 5.316L7.84167 6.93467L6.239 5.28933ZM3.63433 7.87767L5.263 6.259L6.86633 7.90433L5.237 9.523L3.63433 7.87767ZM8.802 7.92L10.4307 6.30133L12.0333 7.94667L10.4043 9.56533L8.802 7.92ZM1.52333 9.97567L2.65867 8.84733L4.261 10.493L2.186 12.555L1.52333 9.97567ZM6.197 10.5083L7.826 8.88967L9.42867 10.535L7.8 12.1537L6.197 10.5083ZM11.3643 10.551L12.9933 8.93233L14.1103 10.0787L13.407 12.647L11.3643 10.551ZM3.14567 13.541L5.221 11.478L6.82433 13.1233L5.689 14.2517L3.14567 13.5407V13.541ZM8.76 13.139L10.3887 11.5203L12.4307 13.6167L9.87667 14.2857L8.76 13.139Z" fill="#6B7280"/>
</g>
</svg>
