<svg width="111" height="25" viewBox="0 0 111 25" fill="none" xmlns="http://www.w3.org/2000/svg">
<g clip-path="url(#clip0_9718_56125)">
<path d="M30.5174 8.58339C30.5174 7.74642 30.2313 7.32794 29.6591 7.32794C29.5403 7.32383 29.4214 7.3352 29.3055 7.36178C29.1559 7.39252 29.0038 7.40958 28.8511 7.41275C28.7816 7.41383 28.7126 7.40003 28.6488 7.37225C28.5849 7.34446 28.5277 7.30334 28.4808 7.25159C28.4308 7.19844 28.3917 7.13587 28.3657 7.06746C28.3397 6.99905 28.3273 6.92615 28.3293 6.85292C28.3293 6.457 28.5642 6.25904 29.0339 6.25904C29.0451 6.25904 29.1289 6.26468 29.2853 6.27596C30.9625 6.38904 31.7453 6.44558 31.6336 6.44558H31.8003L35.8425 6.32672C35.9209 6.32672 36.2116 6.30973 36.7148 6.27575C36.8935 6.26447 37.0556 6.25883 37.2009 6.25883C37.7824 6.25883 38.0732 6.51897 38.0732 7.03925C38.0732 7.12977 38.0571 7.41819 38.0251 7.90449C38.001 8.26643 37.989 8.6001 37.989 8.9055C37.9844 9.18294 37.9937 9.46043 38.0171 9.7369C38.0482 9.97891 38.067 10.2224 38.0732 10.4664C38.0732 10.8961 37.8712 11.111 37.4673 11.111C37.0633 11.111 36.8613 10.8099 36.8613 10.2076V9.32027C36.8613 8.36583 36.6657 7.80331 36.2744 7.63272C35.9836 7.50781 35.2344 7.44536 34.0268 7.44536C33.5565 7.42961 33.0857 7.44691 32.6178 7.49715C32.1369 7.62358 31.8965 7.96825 31.8965 8.53118V10.2278C31.8965 10.6803 31.996 10.9404 32.1951 11.0082C32.326 11.0361 32.4598 11.0474 32.5935 11.0421H33.2741C33.9713 11.0421 34.3199 10.7989 34.3199 10.3126C34.3168 10.1366 34.3028 9.9609 34.2778 9.78663C34.2513 9.59516 34.2372 9.40216 34.2356 9.20884C34.2356 8.75638 34.4348 8.53015 34.8331 8.53015C35.2315 8.53015 35.4307 8.7733 35.4307 9.25961C35.4307 9.35013 35.3944 9.70092 35.3218 10.312C35.2639 10.7679 35.2328 11.2268 35.2286 11.6863C35.2286 11.9125 35.2511 12.314 35.296 12.891C35.3072 12.9815 35.3352 13.1795 35.3801 13.4849C35.4096 13.6815 35.4265 13.8799 35.4307 14.0788C35.4424 14.1617 35.4349 14.2463 35.4086 14.3258C35.3823 14.4053 35.338 14.4776 35.2792 14.5369C35.2204 14.5961 35.1487 14.6408 35.0698 14.6673C34.991 14.6938 34.907 14.7014 34.8247 14.6896C34.432 14.6896 34.2356 14.4521 34.2356 13.977C34.2398 13.7954 34.2539 13.6142 34.2778 13.4341C34.3016 13.2541 34.3157 13.0728 34.3199 12.8912C34.3199 12.4049 34.0002 12.1617 33.3607 12.1617H32.6033C32.278 12.1617 32.0788 12.2183 32.0058 12.3314C31.9115 12.5622 31.874 12.8126 31.8965 13.0612V14.1136C31.8965 14.2945 31.9021 14.5377 31.9132 14.8431C31.9244 15.2163 31.93 15.4652 31.93 15.5897C31.9412 16.0421 32.031 16.3249 32.1992 16.438C32.322 16.5172 32.6137 16.5568 33.0743 16.5568H35.3645C36.0266 16.5568 36.481 16.4579 36.7279 16.2599C36.9747 16.0619 37.0982 15.6915 37.0982 15.1487C37.0982 14.9791 37.0898 14.7274 37.073 14.3937C37.0562 14.0599 37.0477 13.8082 37.0476 13.6384C37.0476 13.1294 37.2469 12.8749 37.6453 12.8749C38.0659 12.8749 38.2762 13.135 38.2762 13.6553C38.2762 13.8589 38.2678 14.17 38.2511 14.5884C38.2343 15.0069 38.2259 15.318 38.2259 15.5216C38.2259 15.6799 38.2343 15.9146 38.2511 16.2256C38.2678 16.5367 38.2762 16.7714 38.2762 16.9297C38.2762 17.4613 38.0182 17.7271 37.502 17.7271C37.3792 17.7271 37.1828 17.7141 36.9129 17.6883C36.7782 17.6745 36.5313 17.6676 36.1723 17.6676C36.2509 17.6676 35.8133 17.6547 34.8595 17.6288C33.9058 17.603 33.0811 17.5905 32.3855 17.5913C31.3307 17.5913 30.2985 17.6309 29.2888 17.7101C29.2378 17.7108 29.1871 17.7165 29.1373 17.7271H29.0368C28.5655 17.7271 28.3299 17.5235 28.3299 17.1163C28.3299 16.7543 28.5041 16.5734 28.8525 16.5734C28.9086 16.5734 29.0601 16.5846 29.307 16.6072C29.422 16.64 29.5409 16.6571 29.6605 16.6582C30.2327 16.6582 30.5188 16.234 30.5188 15.3858L30.5174 8.58339ZM44.6556 15.301V14.2152C44.6668 13.7514 44.8688 13.5195 45.2615 13.5195C45.6543 13.5195 45.8504 13.7795 45.8498 14.2993C45.8498 15.5322 45.6938 16.392 45.3817 16.8788C44.9586 17.5348 44.2622 17.8628 43.2923 17.8628C42.4007 17.8628 41.7655 17.5744 41.3867 16.9976C41.1082 16.5791 40.9689 15.8665 40.9689 14.8598V10.7881C40.9689 10.5505 40.8597 10.4317 40.6414 10.4317H40.0907C40.0067 10.4344 39.9231 10.42 39.8447 10.3894C39.7664 10.3588 39.6949 10.3126 39.6346 10.2536C39.5763 10.198 39.5301 10.1308 39.499 10.0561C39.4678 9.98153 39.4525 9.90119 39.4539 9.82027C39.4541 9.74133 39.4699 9.66322 39.5002 9.59045C39.5305 9.51767 39.5748 9.45166 39.6306 9.39621C39.6799 9.33904 39.7406 9.29296 39.8087 9.26096C39.8768 9.22897 39.9509 9.21177 40.026 9.21049H40.6825C40.8736 9.21049 40.9691 9.10305 40.9691 8.88817V7.14057C40.9691 6.71081 41.1879 6.49593 41.6256 6.49593C42.0295 6.49593 42.2315 6.71081 42.2315 7.14057V8.95647C42.2315 9.1261 42.3325 9.21091 42.5345 9.21091H44.369C44.7953 9.21091 45.0085 9.40887 45.0085 9.80479C45.0085 10.2233 44.7785 10.4325 44.3185 10.4325H42.4669C42.3098 10.4325 42.2313 10.5513 42.2313 10.7889V14.9626C42.2313 16.1502 42.6239 16.744 43.409 16.744C44.2054 16.7433 44.6209 16.2623 44.6556 15.301ZM49.3345 6.70187L49.2663 10.0072C49.6246 9.64271 50.0412 9.34163 50.4986 9.1166C50.9159 8.94372 51.3641 8.85996 51.8151 8.87063C52.7828 8.87063 53.5593 9.14776 54.1446 9.70202C54.4368 9.98296 54.6663 10.3235 54.8177 10.7009C54.969 11.0783 55.0388 11.4839 55.0224 11.8906V14.724C55.0224 15.3914 55.028 15.7589 55.0392 15.8268C55.0841 16.3923 55.2299 16.6751 55.4768 16.6751C55.6101 16.6651 55.7409 16.633 55.8639 16.5802C55.9526 16.5622 56.0429 16.5542 56.1333 16.5562C56.5484 16.5562 56.756 16.7488 56.756 17.134C56.756 17.5192 56.4867 17.7118 55.9482 17.7118C55.7343 17.7067 55.5208 17.6896 55.3088 17.6608C54.9292 17.6108 54.547 17.5824 54.1643 17.576C53.9393 17.5723 53.7144 17.5836 53.491 17.6099C53.0198 17.6777 52.7281 17.7116 52.6159 17.7116C52.4314 17.7179 52.2512 17.6544 52.1109 17.5335C52.046 17.4785 51.9942 17.4096 51.9593 17.3318C51.9243 17.254 51.9071 17.1693 51.9088 17.0839C51.9084 17.0122 51.9241 16.9415 51.9547 16.8768C51.9853 16.8122 52.03 16.7553 52.0855 16.7106C52.1996 16.6102 52.3464 16.5558 52.4978 16.5579C52.6472 16.5627 52.7949 16.5913 52.9354 16.6427C53.0276 16.6751 53.1244 16.6923 53.222 16.6937C53.5587 16.6937 53.7326 16.3261 53.7438 15.5909C53.7438 15.4551 53.755 15.1893 53.7774 14.7936V13.1479C53.7774 11.9943 53.6647 11.2195 53.4394 10.8236C53.1128 10.2354 52.5384 9.94139 51.7162 9.94139C50.8264 9.94139 50.1788 10.2468 49.7734 10.8576C49.4918 11.2761 49.3455 11.9491 49.3343 12.8766V14.0982C49.3255 14.2136 49.3029 14.3275 49.2669 14.4374V14.7597C49.2669 15.4044 49.2727 15.7776 49.2843 15.8794C49.3421 16.4337 49.5093 16.7108 49.7861 16.7108C49.9186 16.7033 50.0494 16.6776 50.175 16.6344C50.2952 16.5926 50.4203 16.5669 50.5472 16.5581C50.9164 16.5581 51.1011 16.7387 51.1011 17.1C51.1011 17.5079 50.8526 17.7118 50.3556 17.7118C50.1973 17.7118 49.9599 17.6948 49.6436 17.6608C49.2778 17.6194 48.9102 17.5967 48.5421 17.5929C48.3501 17.5929 48.0846 17.6099 47.7458 17.6439C47.2938 17.6892 47.0057 17.7118 46.8813 17.7118C46.4182 17.7118 46.1866 17.502 46.1866 17.0824C46.1866 16.7329 46.4037 16.5581 46.8379 16.5581C46.9485 16.5519 47.0591 16.5681 47.1634 16.6055C47.2977 16.6434 47.4355 16.6673 47.5747 16.6769C47.7575 16.6769 47.8804 16.5044 47.9431 16.1594C48.0276 15.4581 48.0645 14.7519 48.0537 14.0455V11.0086C48.0537 9.31202 48.02 8.24036 47.9528 7.79368C47.8855 7.34699 47.7285 7.12358 47.4819 7.12345C47.3627 7.12896 47.2444 7.14603 47.1284 7.17442C47.007 7.20373 46.8829 7.22081 46.7581 7.22538C46.376 7.22538 46.1849 7.04441 46.1849 6.68247C46.1853 6.60352 46.2037 6.52573 46.2388 6.45512C46.2738 6.38451 46.3245 6.32299 46.387 6.27534C46.524 6.16134 46.6974 6.1011 46.875 6.10572C46.9311 6.10572 47.1221 6.12271 47.4482 6.15669C47.6774 6.18008 47.9078 6.19138 48.1382 6.19053C48.2793 6.18666 48.4199 6.17246 48.5589 6.14802C48.6868 6.12501 48.8161 6.11081 48.946 6.10551C49.204 6.10551 49.3331 6.29295 49.3331 6.66782L49.3345 6.70187ZM65.0708 12.6407C65.0931 12.9057 65.0645 13.1726 64.9865 13.4267C64.9303 13.523 64.7671 13.5711 64.4971 13.5711H59.1301C59.0308 13.5598 58.9304 13.5807 58.8436 13.6308C58.819 13.6567 58.8002 13.6876 58.7885 13.7215C58.7769 13.7553 58.7726 13.7913 58.776 13.827C58.7506 14.6092 59.0222 15.3717 59.5355 15.9588C59.769 16.2323 60.0595 16.4504 60.3862 16.5978C60.7129 16.7452 61.0678 16.8183 61.4257 16.8117C61.9085 16.8151 62.3813 16.6732 62.7837 16.4041C63.1667 16.1687 63.4516 15.8009 63.5853 15.3693L63.7374 14.8773C63.7658 14.7531 63.8378 14.6435 63.9401 14.5686C64.0425 14.4938 64.1683 14.4588 64.2942 14.4702C64.7106 14.4702 64.9187 14.6851 64.9187 15.1149C64.9187 15.85 64.5485 16.5035 63.808 17.0752C63.0864 17.6397 62.1965 17.9413 61.2832 17.9312C60.1058 17.9312 59.169 17.5322 58.4731 16.7343C57.7771 15.9364 57.4291 14.8648 57.4291 13.5193C57.4291 12.1394 57.7993 11.0197 58.5398 10.1601C58.8955 9.74008 59.3404 9.40608 59.8415 9.18286C60.3426 8.95965 60.8871 8.85293 61.4347 8.87063C61.9191 8.85535 62.4014 8.94217 62.8506 9.12556C63.2998 9.30895 63.7061 9.58485 64.0434 9.93562C64.3852 10.2945 64.6522 10.7187 64.8286 11.1833C65.0049 11.648 65.0871 12.1435 65.0702 12.6407H65.0708ZM58.9607 12.2131C58.9607 12.3715 59.0845 12.4506 59.3322 12.4506H63.3689C63.6054 12.4506 63.7237 12.3715 63.7237 12.2131C63.7252 11.9199 63.6658 11.6295 63.5495 11.3608C63.4332 11.092 63.2624 10.8507 63.0482 10.6523C62.8409 10.4404 62.5936 10.2727 62.3209 10.159C62.0482 10.0454 61.7556 9.98805 61.4605 9.99051C60.8211 9.9939 60.2063 10.2391 59.7377 10.6777C59.2197 11.1358 58.9607 11.6476 58.9607 12.2131ZM68.857 9.64301V10.1094C69.1114 9.72054 69.4594 9.40304 69.8685 9.18653C70.2776 8.97001 70.7344 8.86154 71.1964 8.87125C71.8947 8.84004 72.5784 9.07991 73.1067 9.54148C73.3458 9.7574 73.5352 10.0234 73.6617 10.3208C73.7882 10.6183 73.8487 10.94 73.8389 11.2635C73.8585 11.6989 73.7276 12.1277 73.4686 12.4766C73.354 12.6266 73.2057 12.7471 73.0361 12.8282C72.8664 12.9093 72.68 12.9487 72.4923 12.9432C72.2517 12.9496 72.0175 12.8648 71.8359 12.7057C71.751 12.6358 71.6828 12.5476 71.6362 12.4476C71.5896 12.3476 71.5659 12.2384 71.5667 12.1279C71.5669 12.0378 71.5848 11.9487 71.6195 11.8657C71.6542 11.7827 71.7049 11.7075 71.7687 11.6444C71.8281 11.5778 71.9007 11.5245 71.9818 11.488C72.0629 11.4514 72.1507 11.4325 72.2395 11.4323C72.3141 11.4412 72.3875 11.4582 72.4584 11.4833C72.5202 11.3684 72.5547 11.2406 72.5593 11.11C72.5586 10.9469 72.5192 10.7863 72.4444 10.6417C72.3697 10.497 72.2616 10.3725 72.1294 10.2786C71.8222 10.0454 71.4449 9.92567 71.0606 9.93933C70.1855 9.93933 69.602 10.3352 69.3102 11.1269C69.1308 11.6132 69.041 12.3484 69.041 13.3324V14.4521C69.041 15.2099 69.0467 15.634 69.058 15.7244C69.1145 16.3691 69.29 16.6914 69.5845 16.6914C69.7391 16.6905 69.8929 16.671 70.0429 16.6334C70.1487 16.6067 70.2572 16.5921 70.3663 16.5899C70.7286 16.5899 70.9098 16.7681 70.9098 17.1245C70.9098 17.5145 70.6798 17.7095 70.2197 17.7095H70.1524C69.8963 17.7031 69.6407 17.6833 69.3866 17.6501C69.1325 17.6169 68.8769 17.5971 68.6208 17.5907C68.1719 17.5907 67.8185 17.6019 67.5604 17.6245L66.6188 17.7093C66.1588 17.7093 65.9287 17.5114 65.9287 17.1154C65.9287 16.7648 66.1439 16.5894 66.5742 16.5894C66.6595 16.5874 66.7448 16.593 66.829 16.6064L67.0839 16.6573C67.162 16.6752 67.2415 16.6866 67.3215 16.6912C67.6047 16.6912 67.7576 16.431 67.7801 15.9108V15.0455L67.7295 11.1942C67.6958 10.5268 67.5275 10.1931 67.2245 10.1931C67.1001 10.1969 66.9763 10.2111 66.8542 10.2357C66.7322 10.2602 66.6083 10.2744 66.4839 10.2782C66.1137 10.2782 65.9285 10.0999 65.9285 9.7435C65.9285 9.3535 66.1697 9.15849 66.6522 9.15849C66.8212 9.16301 66.9898 9.1772 67.1572 9.201C67.3246 9.2248 67.4932 9.23899 67.6622 9.24351C67.8088 9.23832 67.9549 9.22412 68.0998 9.201C68.2037 9.17075 68.3115 9.15642 68.4196 9.15849C68.7112 9.15904 68.857 9.32055 68.857 9.64301ZM78.12 8.87084C78.7952 8.84693 79.4581 9.05648 79.9988 9.46472V9.39683C79.9988 8.97835 80.1783 8.76911 80.5374 8.76911C80.9076 8.76911 81.0927 8.95008 81.0927 9.31202C81.0927 9.37984 81.0834 9.54953 81.0647 9.82109C81.0275 10.0454 81.0087 10.2724 81.0086 10.4998C81.0128 10.6983 81.0269 10.8965 81.0508 11.0937C81.0747 11.2908 81.0887 11.489 81.0929 11.6875C81.0929 12.1173 80.9106 12.3322 80.546 12.3322C80.4727 12.3415 80.3982 12.3339 80.3282 12.31C80.2582 12.2862 80.1945 12.2466 80.1419 12.1943C80.0892 12.1421 80.0489 12.0786 80.0241 12.0084C79.9993 11.9382 79.9906 11.8633 79.9986 11.7893V11.2294C79.9874 10.8901 79.793 10.5988 79.4154 10.3557C79.0175 10.1068 78.5563 9.98005 78.0881 9.99092C77.6223 9.97446 77.1644 10.1147 76.7864 10.3896C76.6254 10.4994 76.4934 10.6472 76.4021 10.8203C76.3107 10.9933 76.2628 11.1862 76.2624 11.3821C76.2624 12.106 76.7576 12.5359 77.7481 12.6716L78.7274 12.8074C80.6408 13.0676 81.5975 13.865 81.5975 15.1997C81.6079 15.5789 81.5298 15.9554 81.3695 16.2987C81.2092 16.642 80.9711 16.9425 80.6745 17.1761C80.0593 17.6795 79.2538 17.9312 78.258 17.9312C77.3864 17.9497 76.5344 17.6685 75.8425 17.1338V17.4565C75.8425 17.8637 75.6515 18.0673 75.2693 18.0673C74.8542 18.0673 74.6466 17.8355 74.6466 17.3717C74.6952 17.0796 74.7288 16.7852 74.7476 16.4896C74.7699 16.3324 74.7811 16.1738 74.7811 16.015C74.7825 15.7589 74.7599 15.5033 74.7138 15.2515C74.675 15.0672 74.6524 14.8799 74.6464 14.6916C74.6464 14.2957 74.826 14.0977 75.185 14.0977C75.4207 14.0977 75.5694 14.1543 75.6311 14.2674C75.7191 14.5582 75.7562 14.8623 75.7406 15.166C75.7518 15.6523 76.0042 16.0482 76.498 16.3536C77.072 16.6795 77.7246 16.8381 78.3829 16.8117C78.872 16.8311 79.353 16.6815 79.7462 16.3876C79.9143 16.2659 80.0509 16.1053 80.1447 15.9193C80.2384 15.7333 80.2864 15.5273 80.2848 15.3187C80.2848 14.5496 79.6788 14.1025 78.467 13.9774C77.3113 13.8536 76.4305 13.6246 75.8247 13.2903C75.2189 12.956 74.916 12.3706 74.9158 11.5342C74.9056 11.1657 74.9807 10.7999 75.135 10.4657C75.2893 10.1314 75.5186 9.83799 75.8048 9.60855C76.3977 9.11674 77.1694 8.87084 78.12 8.87084ZM87.7575 12.0435C87.7575 11.591 88.038 11.3309 88.599 11.2631C88.5762 11.0758 88.514 10.8956 88.4163 10.7347C88.3187 10.5737 88.188 10.4357 88.033 10.33C87.6639 10.09 87.23 9.97142 86.7913 9.99071C86.427 9.98142 86.066 10.0615 85.7393 10.224C85.4126 10.3866 85.13 10.6268 84.9158 10.9238C84.4426 11.5459 84.2061 12.3713 84.2061 13.4001C84.2061 14.4633 84.4283 15.2975 84.8728 15.9025C85.0824 16.1961 85.3609 16.4327 85.6835 16.5912C86.006 16.7496 86.3625 16.825 86.721 16.8105C87.1864 16.8202 87.6413 16.6709 88.0117 16.3868C88.385 16.0924 88.6495 15.6802 88.7627 15.2162C88.8753 14.8203 88.9428 14.594 88.9652 14.5375C89.0134 14.4344 89.09 14.3476 89.186 14.2874C89.2819 14.2272 89.393 14.1963 89.506 14.1982C89.5932 14.1952 89.6801 14.21 89.7614 14.242C89.8426 14.2739 89.9166 14.3222 89.9787 14.384C90.0401 14.4461 90.0883 14.5203 90.1203 14.6019C90.1522 14.6835 90.1672 14.7709 90.1644 14.8586C90.1464 15.2136 90.0546 15.5608 89.895 15.8777C89.7378 16.2395 89.5217 16.5721 89.2555 16.8618C88.9268 17.2148 88.5271 17.4928 88.0831 17.6773C87.6391 17.8617 87.1611 17.9483 86.6811 17.9312C86.1583 17.9499 85.638 17.8498 85.1588 17.6383C84.6795 17.4268 84.2536 17.1094 83.9125 16.7095C83.2112 15.8951 82.8606 14.8263 82.8606 13.503C82.8606 12.0998 83.2222 10.9773 83.9455 10.1354C84.6688 9.29345 85.6309 8.87214 86.8318 8.87146C87.6412 8.84186 88.4346 9.1035 89.0702 9.60958C89.3533 9.83064 89.5813 10.1152 89.7361 10.4406C89.891 10.7661 89.9684 11.1234 89.9623 11.4843C89.9768 11.8602 89.8541 12.2284 89.6174 12.5191C89.5104 12.6501 89.3752 12.7548 89.2222 12.8253C89.0691 12.8959 88.9021 12.9304 88.7339 12.9263C88.4773 12.9351 88.2272 12.844 88.0354 12.6718C87.9465 12.5939 87.8755 12.4972 87.8274 12.3887C87.7794 12.2802 87.7555 12.1623 87.7575 12.0435ZM98.6804 17.8626C97.7603 17.8626 97.194 17.4611 96.9814 16.658C96.4082 17.5068 95.5103 17.9312 94.2877 17.9312C93.3788 17.9312 92.6523 17.7049 92.1082 17.2525C91.8419 17.0342 91.6295 16.7566 91.4878 16.4414C91.3462 16.1263 91.2791 15.7823 91.2919 15.4366C91.2716 15.0121 91.3736 14.5907 91.5857 14.2234C91.7978 13.8561 92.1108 13.5586 92.4869 13.3666C92.7317 13.2213 92.995 13.1102 93.2695 13.0365C93.4878 12.9856 93.9282 12.9205 94.5906 12.8413C95.5331 12.7395 96.1472 12.5981 96.433 12.4172C96.7187 12.2363 96.862 11.9026 96.8628 11.4162C96.8723 11.2089 96.8339 11.0023 96.7506 10.8125C96.6674 10.6227 96.5416 10.455 96.3832 10.3225C95.9973 10.036 95.5237 9.8952 95.0453 9.92468C94.5431 9.92384 94.0517 10.0713 93.6316 10.3487C93.4633 10.4618 93.3792 10.5806 93.3792 10.7051C93.3792 10.7504 93.4297 10.8069 93.5307 10.8747C93.6142 10.9439 93.6795 11.0329 93.7206 11.1338C93.7617 11.2346 93.7774 11.3441 93.7663 11.4525C93.7689 11.5582 93.7484 11.6631 93.7063 11.7599C93.6641 11.8566 93.6013 11.9428 93.5223 12.0123C93.3529 12.1619 93.1333 12.2408 92.9082 12.2329C92.7718 12.2362 92.6362 12.2108 92.5101 12.1582C92.384 12.1056 92.2702 12.027 92.176 11.9275C92.0798 11.8293 92.0041 11.7126 91.9535 11.5844C91.9029 11.4561 91.8784 11.3189 91.8814 11.181C91.8814 10.5481 92.1928 10.0052 92.8155 9.55221C93.4782 9.08688 94.2717 8.84853 95.0791 8.87228C97.1212 8.87228 98.1422 9.85982 98.1422 11.8349V15.2548C98.1321 15.5768 98.1433 15.8991 98.1758 16.2197C98.2431 16.6146 98.4342 16.8121 98.749 16.8121C99.1417 16.8121 99.3381 16.4526 99.3381 15.7337V14.9083C99.3381 14.5488 99.5093 14.3691 99.8517 14.3691C100.216 14.3691 100.398 14.6405 100.398 15.1834V16.2358C100.375 17.3202 99.8025 17.8624 98.6804 17.8624V17.8626ZM96.7955 14.4865V13.282C96.5722 13.4945 96.3064 13.6563 96.016 13.7566C95.5357 13.8827 95.0446 13.9623 94.5493 13.9942C93.2752 14.118 92.6382 14.593 92.6382 15.4192C92.6302 15.6137 92.668 15.8073 92.7484 15.9842C92.8289 16.1611 92.9497 16.3163 93.101 16.4372C93.464 16.7032 93.9068 16.835 94.3548 16.8105C95.1066 16.8105 95.6985 16.6041 96.1304 16.1914C96.3517 15.9687 96.5251 15.7023 96.6395 15.4089C96.754 15.1156 96.8071 14.8015 96.7955 14.4865ZM103.511 9.67706V10.1603C103.825 9.74484 104.234 9.41107 104.702 9.18679C105.171 8.96251 105.685 8.85419 106.204 8.87084C106.807 8.8701 107.399 9.03112 107.92 9.3374C108.404 9.58959 108.79 9.99908 109.014 10.4996C109.188 10.9831 109.268 11.4956 109.25 12.0095V15.2331C109.25 15.7194 109.255 16.0078 109.267 16.0983C109.323 16.4835 109.474 16.6761 109.721 16.6761C109.854 16.6728 109.986 16.6586 110.117 16.6336C110.23 16.6109 110.346 16.5967 110.461 16.5911C110.531 16.5902 110.601 16.6032 110.666 16.6294C110.731 16.6556 110.79 16.6945 110.84 16.7438C110.892 16.7911 110.932 16.8488 110.96 16.9131C110.987 16.9775 111.001 17.047 111 17.1171C111.001 17.1987 110.983 17.2794 110.948 17.353C110.913 17.4265 110.862 17.4909 110.798 17.5411C110.661 17.6551 110.488 17.7154 110.31 17.7108C110.051 17.7022 109.793 17.6793 109.536 17.6423C109.201 17.5986 108.864 17.5759 108.526 17.5744C108.285 17.5718 108.043 17.5831 107.803 17.6082C107.242 17.676 106.944 17.7099 106.91 17.7099C106.462 17.7099 106.237 17.512 106.237 17.1161C106.237 16.7654 106.432 16.5901 106.821 16.5901C106.925 16.5913 107.028 16.6027 107.13 16.6239C107.265 16.6569 107.402 16.68 107.54 16.693C107.815 16.693 107.964 16.382 107.987 15.7599V12.5695C108.001 12.155 107.973 11.7401 107.903 11.3314C107.818 10.9263 107.585 10.5686 107.249 10.3304C106.881 10.0705 106.441 9.93394 105.992 9.94016C105.097 9.94016 104.455 10.2625 104.063 10.9071C103.795 11.3483 103.661 12.1005 103.661 13.1636V15.42C103.643 15.7626 103.677 16.1058 103.762 16.438C103.785 16.5185 103.833 16.589 103.901 16.6383C103.968 16.6875 104.049 16.7125 104.132 16.7093C104.258 16.7039 104.382 16.684 104.503 16.6499C104.629 16.6148 104.759 16.5949 104.89 16.5905C105.238 16.5905 105.411 16.7799 105.411 17.1588C105.411 17.5264 105.187 17.7101 104.738 17.7101C104.648 17.7101 104.357 17.6762 103.863 17.6084C103.59 17.5728 103.314 17.5557 103.038 17.5574C102.723 17.5629 102.409 17.5856 102.097 17.6253C101.603 17.6819 101.322 17.7101 101.255 17.7101C100.784 17.7101 100.548 17.5176 100.548 17.1324C100.538 17.0578 100.546 16.982 100.57 16.9108C100.594 16.8397 100.635 16.7752 100.688 16.7225C100.741 16.6698 100.806 16.6303 100.877 16.6072C100.948 16.5841 101.024 16.578 101.097 16.5894C101.204 16.5969 101.31 16.614 101.414 16.6404C101.564 16.6738 101.716 16.6909 101.869 16.6914C102.212 16.6914 102.389 16.3634 102.401 15.7073V11.1783C102.402 10.9084 102.352 10.6409 102.255 10.3894C102.218 10.3199 102.162 10.2628 102.094 10.2251C102.025 10.1874 101.947 10.1707 101.869 10.1773C101.751 10.1825 101.633 10.1996 101.518 10.2282C101.403 10.2568 101.285 10.2739 101.167 10.2792C100.755 10.2792 100.55 10.0954 100.55 9.72782C100.55 9.34896 100.802 9.15952 101.307 9.15952C101.364 9.15837 101.42 9.16405 101.475 9.17645L102.098 9.24434C102.256 9.24628 102.414 9.23203 102.569 9.20183C102.861 9.17349 103.012 9.15932 103.023 9.15932C103.348 9.15932 103.511 9.3319 103.511 9.67706Z" fill="#21325B"/>
<path d="M5.16318 11.8824C5.1632 11.7426 5.19062 11.6042 5.24386 11.4751C5.29709 11.346 5.3751 11.2288 5.4734 11.1302C5.5717 11.0316 5.68835 10.9535 5.81666 10.9005C5.94497 10.8474 6.08241 10.8205 6.22108 10.8211L7.97498 10.8269C8.25463 10.8269 8.52282 10.9389 8.72057 11.1382C8.91831 11.3376 9.0294 11.6079 9.0294 11.8898V18.5756C9.22694 18.5166 9.47975 18.4537 9.75794 18.3877C9.95067 18.3419 10.1224 18.2319 10.2454 18.0755C10.3683 17.919 10.4353 17.7253 10.4353 17.5257V9.23304C10.4353 8.95111 10.5464 8.68073 10.7441 8.48137C10.9419 8.282 11.2101 8.16996 11.4897 8.16991H13.2489C13.5286 8.16996 13.7967 8.28197 13.9945 8.48129C14.1922 8.68062 14.3033 8.95095 14.3034 9.23283V16.9298C14.3034 16.9298 14.7435 16.7502 15.1719 16.5678C15.3311 16.5 15.467 16.3863 15.5625 16.2411C15.6581 16.0959 15.7091 15.9256 15.7093 15.7513V6.57563C15.7093 6.29376 15.8203 6.02344 16.018 5.82411C16.2157 5.62478 16.4839 5.51277 16.7635 5.51271H18.5209C18.8003 5.51298 19.0683 5.62509 19.2658 5.8244C19.4633 6.02371 19.5743 6.29391 19.5743 6.57563V14.1316C21.0979 13.0186 22.6419 11.6798 23.8673 10.07C24.0451 9.83634 24.1627 9.56194 24.2097 9.27131C24.2567 8.98067 24.2316 8.68281 24.1367 8.40433C23.5695 6.75931 22.6678 5.25178 21.4895 3.97818C20.3111 2.70459 18.882 1.69299 17.2936 1.00812C15.7051 0.323248 13.9924 -0.0198155 12.2648 0.000883905C10.5373 0.0215833 8.83313 0.405589 7.26129 1.12833C5.68944 1.85107 4.28458 2.89662 3.13659 4.19809C1.9886 5.49956 1.12277 7.02827 0.594505 8.68641C0.0662375 10.3446 -0.112832 12.0956 0.0687536 13.8275C0.250339 15.5594 0.788582 17.234 1.64904 18.7442C1.79895 19.0047 2.0195 19.2167 2.28479 19.3553C2.55007 19.4938 2.84907 19.5531 3.14665 19.5263C3.47908 19.4968 3.89299 19.4551 4.3851 19.3969C4.59909 19.3721 4.79657 19.2689 4.94 19.1069C5.08342 18.9449 5.16277 18.7354 5.16297 18.5183V11.8824" fill="#21325B"/>
<path d="M5.12598 22.6037C6.97838 23.9621 9.16747 24.7775 11.4511 24.9597C13.7346 25.1418 16.0237 24.6836 18.065 23.6357C20.1062 22.5878 21.8201 20.9911 23.0171 19.0222C24.214 17.0533 24.8473 14.789 24.8469 12.4798C24.8469 12.1909 24.8336 11.9066 24.8145 11.623C20.2777 18.444 11.9008 21.6328 5.12598 22.6037Z" fill="#979695"/>
</g>
<defs>
<clipPath id="clip0_9718_56125">
<rect width="111" height="25" fill="white"/>
</clipPath>
</defs>
</svg>
