<svg width="19" height="20" viewBox="0 0 19 20" fill="none" xmlns="http://www.w3.org/2000/svg">
<circle cx="9.5" cy="10" r="9" fill="black" fill-opacity="0.05" stroke="#BCBFCC"/>
<path d="M9.71876 3.5183V3.5244C9.72478 3.55489 9.72478 3.59149 9.72478 3.62808V8.02551C9.71876 8.0499 9.70071 8.056 9.68266 8.0682C9.55628 8.12919 9.43593 8.18408 9.30956 8.23897C9.13505 8.31826 8.95452 8.40365 8.78 8.48293L8.14815 8.77569C7.97364 8.85498 7.79912 8.93427 7.63063 9.01355C7.42603 9.11114 7.21541 9.20262 7.01081 9.30021C6.8363 9.3795 6.66179 9.46488 6.48126 9.54417C6.33683 9.61126 6.19241 9.67225 6.054 9.73934C6.04197 9.74544 6.02993 9.75154 6.01789 9.75154C6.01188 9.75154 6.01188 9.75154 6.00586 9.74544L6.16834 9.47098C6.48126 8.94646 6.78816 8.42804 7.10108 7.90352C7.43205 7.34241 7.76904 6.7813 8.10001 6.22018C8.40691 5.70176 8.71983 5.18334 9.02673 4.66492C9.24938 4.28678 9.47805 3.90864 9.70071 3.5305C9.70673 3.5183 9.71274 3.5122 9.71274 3.5H9.71876C9.71274 3.5061 9.71876 3.5122 9.71876 3.5183Z" fill="#BCBFCC"/>
<path d="M13.4139 10.2618L13.4199 10.2679L12.5353 10.7985L9.75517 12.4635C9.74314 12.4696 9.7311 12.4757 9.72508 12.4818C9.70703 12.4818 9.70703 12.4635 9.70703 12.4574V12.4026V8.63333C9.70703 8.61503 9.70703 8.59064 9.71305 8.57234C9.71907 8.54794 9.73712 8.55404 9.75517 8.56014C9.8334 8.59674 9.91765 8.63333 9.99588 8.66993C10.2306 8.77971 10.4653 8.88949 10.6999 8.99318C10.9045 9.08466 11.1031 9.18225 11.3077 9.27373C11.5123 9.36522 11.7169 9.4628 11.9215 9.55429C12.096 9.63358 12.2766 9.71896 12.4511 9.79825C12.6256 9.87754 12.8061 9.96293 12.9806 10.0422C13.1191 10.1032 13.2575 10.1703 13.3959 10.2313C13.3959 10.2496 13.4019 10.2557 13.4139 10.2618Z" fill="#BCBFCC"/>
<path d="M9.71876 16.2698C9.71876 16.2759 9.71274 16.282 9.71274 16.2881H9.70673C9.70673 16.2759 9.69469 16.2698 9.68867 16.2576C9.31558 15.727 8.94248 15.1903 8.56939 14.6597C8.19027 14.1169 7.80514 13.5679 7.42603 13.0251C7.05895 12.5006 6.68586 11.97 6.31878 11.4455C6.2225 11.3052 6.12621 11.171 6.02993 11.0307C6.02391 11.0185 6.01789 11.0124 6.00586 10.9941C6.02391 10.9941 6.03595 11.0063 6.04197 11.0124C6.5655 11.3235 7.08302 11.6345 7.60656 11.9456C8.20833 12.3054 8.80408 12.6653 9.40584 13.0251L9.71274 13.2081C9.72478 13.2203 9.72478 13.2325 9.72478 13.2447V16.1844C9.72478 16.2149 9.72478 16.2454 9.71876 16.2698Z" fill="#BCBFCC"/>
<path d="M6 10.2727V10.2666C6.19257 10.1812 6.37911 10.0897 6.57168 10.0043C6.8184 9.88843 7.06513 9.77865 7.31185 9.66276C7.4984 9.57738 7.69096 9.48589 7.87751 9.4005C8.15433 9.27242 8.42512 9.15044 8.70193 9.02236C8.88848 8.93698 9.07503 8.85159 9.26759 8.7601C9.39998 8.69911 9.53839 8.63812 9.67078 8.57713C9.68281 8.57103 9.70087 8.56493 9.70688 8.55273C9.7129 8.55273 9.7129 8.55883 9.70688 8.56493V12.4378C9.70688 12.4561 9.70087 12.4744 9.7129 12.4866C9.70087 12.5049 9.68883 12.4866 9.68281 12.4805C9.62865 12.45 9.5745 12.4195 9.52034 12.3829C8.35893 11.6877 7.1915 10.9863 6.03009 10.291C6.02407 10.2849 6.01204 10.2788 6 10.2727Z" fill="#BCBFCC"/>
<path d="M13.4017 10.9941H13.4077C13.4077 11.0063 13.3957 11.0185 13.3897 11.0307C12.2824 12.6104 11.1752 14.1961 10.0679 15.7758C9.9536 15.9405 9.83324 16.1052 9.71891 16.2698C9.71289 16.2637 9.71289 16.2576 9.71289 16.2515V16.2149V13.2569V13.202C9.96563 13.0495 10.2124 12.9031 10.4651 12.7507C11.44 12.1652 12.4148 11.5857 13.3837 11.0002C13.3897 11.0063 13.3957 11.0002 13.4017 10.9941Z" fill="#BCBFCC"/>
<path d="M9.71321 8.04894V8.03674V8.00015V3.57223C9.71321 3.55393 9.70719 3.54173 9.71922 3.52344C10.9408 5.57882 12.1624 7.62811 13.378 9.68349C13.39 9.70179 13.4081 9.72618 13.4141 9.75058C13.3298 9.72009 13.2516 9.67739 13.1734 9.6408C13.0771 9.5981 12.9748 9.54931 12.8785 9.50662C12.8183 9.47612 12.7521 9.45173 12.692 9.42123C12.5897 9.37244 12.4874 9.32975 12.3851 9.28095C12.3249 9.25656 12.2647 9.22606 12.2045 9.19557L11.8074 9.01259C11.7412 8.9821 11.675 8.9516 11.6028 8.92111L11.3139 8.79303C11.2537 8.76863 11.1936 8.73814 11.1334 8.70764L10.7362 8.52467C10.67 8.49417 10.6038 8.46368 10.5316 8.43318L10.2428 8.3051C10.1766 8.27461 10.1164 8.24411 10.0502 8.21362C9.93586 8.15873 9.82153 8.10383 9.70117 8.05504C9.71922 8.04894 9.71321 8.04894 9.71321 8.04894Z" fill="#BCBFCC"/>
</svg>
